# xmcd
#
# Track frame offsets:
#	150
#	19175
#	39178
#	56455
#	82095
#	92073
#	117430
#	133275
#	151695
#	190578
#	210178
#	238863
#
# Disc length: 3435 seconds
#
# Revision: 0
# Processed by: cddbd v1.5.2PL0 Copyright (c) Steve Scherf et al.
# Submitted via: EasyCDDAExtractor 16.0.9.1
#
DISCID=940d690c
DTITLE=PMD Blues Band Featuring Eb Davis - Live In Hungary (Album)
DYEAR=1996
DGENRE=Blues
TTITLE0=Steeled Blues
TTITLE1=Boogie With Me Baby
TTITLE2=Every Day I Have The Blues
TTITLE3=Stormy Monday Blues
TTITLE4=Walking By Myself
TTITLE5=Just To Be With You
TTITLE6=Sweet Home Chicago
TTITLE7=My Baby
TTITLE8=When A Bluesman Sings The Blues
TTITLE9=Greeny
TTITLE10=Öregember Blues (Old Man Blues)
TTITLE11=Utolsó Vonat (The Last Trane)
EXTD=
EXTT0=
EXTT1=
EXTT2=
EXTT3=
EXTT4=
EXTT5=
EXTT6=
EXTT7=
EXTT8=
EXTT9=
EXTT10=
EXTT11=
PLAYORDER=
